solid solid
 facet normal 0.5987612 0.52923362 0.60116288
  outer loop
   vertex 0.018738411 -0.019215058 0.0025975818
   vertex 0.020479512 -0.021001842 0.0024364316
   vertex 0.022457237 -0.018715491 -0.0015461809
  endloop
 endfacet
 facet normal 0.5987612 0.52923362 0.60116288
  outer loop
   vertex 0.018738411 -0.019215058 0.0025975818
   vertex 0.022457237 -0.018715491 -0.0015461809
   vertex 0.020716136 -0.016928706 -0.0013850307
  endloop
 endfacet
 facet normal 0.64193252 0.66062452 -0.38922729
  outer loop
   vertex 0.020716136 -0.016928706 -0.0013850307
   vertex 0.022457237 -0.018715491 -0.0015461809
   vertex 0.020853387 -0.019863964 -0.0061405986
  endloop
 endfacet
 facet normal 0.64193252 0.66062452 -0.38922729
  outer loop
   vertex 0.020716136 -0.016928706 -0.0013850307
   vertex 0.020853387 -0.019863964 -0.0061405986
   vertex 0.019112286 -0.018077179 -0.0059794485
  endloop
 endfacet
 facet normal 0.04317131 0.13139089 -0.99039016
  outer loop
   vertex 0.019112286 -0.018077179 -0.0059794485
   vertex 0.020853387 -0.019863964 -0.0061405986
   vertex 0.017271813 -0.023298788 -0.0067524039
  endloop
 endfacet
 facet normal 0.04317131 0.13139089 -0.99039016
  outer loop
   vertex 0.019112286 -0.018077179 -0.0059794485
   vertex 0.017271813 -0.023298788 -0.0067524039
   vertex 0.015530712 -0.021512004 -0.0065912537
  endloop
 endfacet
 facet normal -0.5987612 -0.52923362 -0.60116288
  outer loop
   vertex 0.015530712 -0.021512004 -0.0065912537
   vertex 0.017271813 -0.023298788 -0.0067524039
   vertex 0.015294088 -0.02558514 -0.0027697914
  endloop
 endfacet
 facet normal -0.5987612 -0.52923362 -0.60116288
  outer loop
   vertex 0.015530712 -0.021512004 -0.0065912537
   vertex 0.015294088 -0.02558514 -0.0027697914
   vertex 0.013552987 -0.023798356 -0.0026086412
  endloop
 endfacet
 facet normal 0.69644042 -0.71471367 -0.064460069
  outer loop
   vertex 0.020853387 -0.019863964 -0.0061405986
   vertex 0.022457237 -0.018715491 -0.0015461809
   vertex 0.020479512 -0.021001842 0.0024364316
  endloop
 endfacet
 facet normal 0.69644042 -0.71471367 -0.064460069
  outer loop
   vertex 0.020479512 -0.021001842 0.0024364316
   vertex 0.016897938 -0.024436667 0.0018246263
   vertex 0.015294088 -0.02558514 -0.0027697914
  endloop
 endfacet
 facet normal 0.69644042 -0.71471367 -0.064460069
  outer loop
   vertex 0.015294088 -0.02558514 -0.0027697914
   vertex 0.017271813 -0.023298788 -0.0067524039
   vertex 0.020853387 -0.019863964 -0.0061405986
  endloop
 endfacet
 facet normal 0.69644042 -0.71471367 -0.064460069
  outer loop
   vertex 0.020479512 -0.021001842 0.0024364316
   vertex 0.015294088 -0.02558514 -0.0027697914
   vertex 0.020853387 -0.019863964 -0.0061405986
  endloop
 endfacet
 facet normal -0.64193252 -0.66062452 0.38922729
  outer loop
   vertex 0.013552987 -0.023798356 -0.0026086412
   vertex 0.015294088 -0.02558514 -0.0027697914
   vertex 0.016897938 -0.024436667 0.0018246263
  endloop
 endfacet
 facet normal -0.64193252 -0.66062452 0.38922729
  outer loop
   vertex 0.013552987 -0.023798356 -0.0026086412
   vertex 0.016897938 -0.024436667 0.0018246263
   vertex 0.015156837 -0.022649883 0.0019857765
  endloop
 endfacet
 facet normal -0.04317131 -0.13139089 0.99039016
  outer loop
   vertex 0.015156837 -0.022649883 0.0019857765
   vertex 0.016897938 -0.024436667 0.0018246263
   vertex 0.020479512 -0.021001842 0.0024364316
  endloop
 endfacet
 facet normal -0.04317131 -0.13139089 0.99039016
  outer loop
   vertex 0.015156837 -0.022649883 0.0019857765
   vertex 0.020479512 -0.021001842 0.0024364316
   vertex 0.018738411 -0.019215058 0.0025975818
  endloop
 endfacet
 facet normal -0.69644042 0.71471367 0.064460069
  outer loop
   vertex 0.015156837 -0.022649883 0.0019857765
   vertex 0.018738411 -0.019215058 0.0025975818
   vertex 0.020716136 -0.016928706 -0.0013850307
  endloop
 endfacet
 facet normal -0.69644042 0.71471367 0.064460069
  outer loop
   vertex 0.020716136 -0.016928706 -0.0013850307
   vertex 0.019112286 -0.018077179 -0.0059794485
   vertex 0.015530712 -0.021512004 -0.0065912537
  endloop
 endfacet
 facet normal -0.69644042 0.71471367 0.064460069
  outer loop
   vertex 0.015530712 -0.021512004 -0.0065912537
   vertex 0.013552987 -0.023798356 -0.0026086412
   vertex 0.015156837 -0.022649883 0.0019857765
  endloop
 endfacet
 facet normal -0.69644042 0.71471367 0.064460069
  outer loop
   vertex 0.020716136 -0.016928706 -0.0013850307
   vertex 0.015530712 -0.021512004 -0.0065912537
   vertex 0.015156837 -0.022649883 0.0019857765
  endloop
 endfacet
endsolid solid
