solid solid
 facet normal -0.070828941 0.7595479 0.64658352
  outer loop
   vertex -0.011343627 -0.019294327 0.002346965
   vertex -0.013290763 -0.018387163 0.0010680144
   vertex -0.016406726 -0.021086308 0.0038973933
  endloop
 endfacet
 facet normal -0.070828941 0.7595479 0.64658352
  outer loop
   vertex -0.011343627 -0.019294327 0.002346965
   vertex -0.016406726 -0.021086308 0.0038973933
   vertex -0.014459591 -0.021993473 0.0051763439
  endloop
 endfacet
 facet normal -0.57511521 -0.087731744 0.81335456
  outer loop
   vertex -0.014459591 -0.021993473 0.0051763439
   vertex -0.016406726 -0.021086308 0.0038973933
   vertex -0.01765801 -0.02572482 0.002512294
  endloop
 endfacet
 facet normal -0.57511521 -0.087731744 0.81335456
  outer loop
   vertex -0.014459591 -0.021993473 0.0051763439
   vertex -0.01765801 -0.02572482 0.002512294
   vertex -0.015710874 -0.026631984 0.0037912446
  endloop
 endfacet
 facet normal -0.50428626 -0.84727964 0.16677103
  outer loop
   vertex -0.015710874 -0.026631984 0.0037912446
   vertex -0.01765801 -0.02572482 0.002512294
   vertex -0.01579333 -0.027664186 -0.0017021843
  endloop
 endfacet
 facet normal -0.50428626 -0.84727964 0.16677103
  outer loop
   vertex -0.015710874 -0.026631984 0.0037912446
   vertex -0.01579333 -0.027664186 -0.0017021843
   vertex -0.013846194 -0.02857135 -0.00042323366
  endloop
 endfacet
 facet normal 0.070828941 -0.7595479 -0.64658352
  outer loop
   vertex -0.013846194 -0.02857135 -0.00042323366
   vertex -0.01579333 -0.027664186 -0.0017021843
   vertex -0.012677366 -0.02496504 -0.0045315632
  endloop
 endfacet
 facet normal 0.070828941 -0.7595479 -0.64658352
  outer loop
   vertex -0.013846194 -0.02857135 -0.00042323366
   vertex -0.012677366 -0.02496504 -0.0045315632
   vertex -0.01073023 -0.025872205 -0.0032526126
  endloop
 endfacet
 facet normal -0.77885434 0.36286576 -0.51158025
  outer loop
   vertex -0.01765801 -0.02572482 0.002512294
   vertex -0.016406726 -0.021086308 0.0038973933
   vertex -0.013290763 -0.018387163 0.0010680144
  endloop
 endfacet
 facet normal -0.77885434 0.36286576 -0.51158025
  outer loop
   vertex -0.013290763 -0.018387163 0.0010680144
   vertex -0.011426082 -0.020326529 -0.0031464638
   vertex -0.012677366 -0.02496504 -0.0045315632
  endloop
 endfacet
 facet normal -0.77885434 0.36286576 -0.51158025
  outer loop
   vertex -0.012677366 -0.02496504 -0.0045315632
   vertex -0.01579333 -0.027664186 -0.0017021843
   vertex -0.01765801 -0.02572482 0.002512294
  endloop
 endfacet
 facet normal -0.77885434 0.36286576 -0.51158025
  outer loop
   vertex -0.013290763 -0.018387163 0.0010680144
   vertex -0.012677366 -0.02496504 -0.0045315632
   vertex -0.01765801 -0.02572482 0.002512294
  endloop
 endfacet
 facet normal 0.57511521 0.087731744 -0.81335456
  outer loop
   vertex -0.01073023 -0.025872205 -0.0032526126
   vertex -0.012677366 -0.02496504 -0.0045315632
   vertex -0.011426082 -0.020326529 -0.0031464638
  endloop
 endfacet
 facet normal 0.57511521 0.087731744 -0.81335456
  outer loop
   vertex -0.01073023 -0.025872205 -0.0032526126
   vertex -0.011426082 -0.020326529 -0.0031464638
   vertex -0.0094789467 -0.021233693 -0.0018675132
  endloop
 endfacet
 facet normal 0.50428626 0.84727964 -0.16677103
  outer loop
   vertex -0.0094789467 -0.021233693 -0.0018675132
   vertex -0.011426082 -0.020326529 -0.0031464638
   vertex -0.013290763 -0.018387163 0.0010680144
  endloop
 endfacet
 facet normal 0.50428626 0.84727964 -0.16677103
  outer loop
   vertex -0.0094789467 -0.021233693 -0.0018675132
   vertex -0.013290763 -0.018387163 0.0010680144
   vertex -0.011343627 -0.019294327 0.002346965
  endloop
 endfacet
 facet normal 0.77885434 -0.36286576 0.51158025
  outer loop
   vertex -0.0094789467 -0.021233693 -0.0018675132
   vertex -0.011343627 -0.019294327 0.002346965
   vertex -0.014459591 -0.021993473 0.0051763439
  endloop
 endfacet
 facet normal 0.77885434 -0.36286576 0.51158025
  outer loop
   vertex -0.014459591 -0.021993473 0.0051763439
   vertex -0.015710874 -0.026631984 0.0037912446
   vertex -0.013846194 -0.02857135 -0.00042323366
  endloop
 endfacet
 facet normal 0.77885434 -0.36286576 0.51158025
  outer loop
   vertex -0.013846194 -0.02857135 -0.00042323366
   vertex -0.01073023 -0.025872205 -0.0032526126
   vertex -0.0094789467 -0.021233693 -0.0018675132
  endloop
 endfacet
 facet normal 0.77885434 -0.36286576 0.51158025
  outer loop
   vertex -0.014459591 -0.021993473 0.0051763439
   vertex -0.013846194 -0.02857135 -0.00042323366
   vertex -0.0094789467 -0.021233693 -0.0018675132
  endloop
 endfacet
endsolid solid
