solid solid
 facet normal -0.46311678 0.57953944 0.6705646
  outer loop
   vertex 0.0054458838 -0.022858806 0.0048366252
   vertex 0.0062483371 -0.024347704 0.0066776176
   vertex 0.010378996 -0.021566321 0.0071265776
  endloop
 endfacet
 facet normal -0.46311678 0.57953944 0.6705646
  outer loop
   vertex 0.0054458838 -0.022858806 0.0048366252
   vertex 0.010378996 -0.021566321 0.0071265776
   vertex 0.0095765431 -0.020077424 0.0052855852
  endloop
 endfacet
 facet normal 0.48389279 0.77151931 0.41304446
  outer loop
   vertex 0.0095765431 -0.020077424 0.0052855852
   vertex 0.010378996 -0.021566321 0.0071265776
   vertex 0.01444968 -0.022685109 0.0044474278
  endloop
 endfacet
 facet normal 0.48389279 0.77151931 0.41304446
  outer loop
   vertex 0.0095765431 -0.020077424 0.0052855852
   vertex 0.01444968 -0.022685109 0.0044474278
   vertex 0.013647227 -0.021196212 0.0026064354
  endloop
 endfacet
 facet normal 0.94700956 0.19197985 -0.25752015
  outer loop
   vertex 0.013647227 -0.021196212 0.0026064354
   vertex 0.01444968 -0.022685109 0.0044474278
   vertex 0.014389705 -0.02658528 0.0013193179
  endloop
 endfacet
 facet normal 0.94700956 0.19197985 -0.25752015
  outer loop
   vertex 0.013647227 -0.021196212 0.0026064354
   vertex 0.014389705 -0.02658528 0.0013193179
   vertex 0.013587252 -0.025096383 -0.00052167452
  endloop
 endfacet
 facet normal 0.46311678 -0.57953944 -0.6705646
  outer loop
   vertex 0.013587252 -0.025096383 -0.00052167452
   vertex 0.014389705 -0.02658528 0.0013193179
   vertex 0.010259046 -0.029366662 0.00087035783
  endloop
 endfacet
 facet normal 0.46311678 -0.57953944 -0.6705646
  outer loop
   vertex 0.013587252 -0.025096383 -0.00052167452
   vertex 0.010259046 -0.029366662 0.00087035783
   vertex 0.0094565926 -0.027877765 -0.00097063457
  endloop
 endfacet
 facet normal 0.32098133 -0.59555896 0.73639698
  outer loop
   vertex 0.01444968 -0.022685109 0.0044474278
   vertex 0.010378996 -0.021566321 0.0071265776
   vertex 0.0062483371 -0.024347704 0.0066776176
  endloop
 endfacet
 facet normal 0.32098133 -0.59555896 0.73639698
  outer loop
   vertex 0.0062483371 -0.024347704 0.0066776176
   vertex 0.0061883619 -0.028247874 0.0035495077
   vertex 0.010259046 -0.029366662 0.00087035783
  endloop
 endfacet
 facet normal 0.32098133 -0.59555896 0.73639698
  outer loop
   vertex 0.010259046 -0.029366662 0.00087035783
   vertex 0.014389705 -0.02658528 0.0013193179
   vertex 0.01444968 -0.022685109 0.0044474278
  endloop
 endfacet
 facet normal 0.32098133 -0.59555896 0.73639698
  outer loop
   vertex 0.0062483371 -0.024347704 0.0066776176
   vertex 0.010259046 -0.029366662 0.00087035783
   vertex 0.01444968 -0.022685109 0.0044474278
  endloop
 endfacet
 facet normal -0.48389279 -0.77151931 -0.41304446
  outer loop
   vertex 0.0094565926 -0.027877765 -0.00097063457
   vertex 0.010259046 -0.029366662 0.00087035783
   vertex 0.0061883619 -0.028247874 0.0035495077
  endloop
 endfacet
 facet normal -0.48389279 -0.77151931 -0.41304446
  outer loop
   vertex 0.0094565926 -0.027877765 -0.00097063457
   vertex 0.0061883619 -0.028247874 0.0035495077
   vertex 0.0053859086 -0.026758977 0.0017085153
  endloop
 endfacet
 facet normal -0.94700956 -0.19197985 0.25752015
  outer loop
   vertex 0.0053859086 -0.026758977 0.0017085153
   vertex 0.0061883619 -0.028247874 0.0035495077
   vertex 0.0062483371 -0.024347704 0.0066776176
  endloop
 endfacet
 facet normal -0.94700956 -0.19197985 0.25752015
  outer loop
   vertex 0.0053859086 -0.026758977 0.0017085153
   vertex 0.0062483371 -0.024347704 0.0066776176
   vertex 0.0054458838 -0.022858806 0.0048366252
  endloop
 endfacet
 facet normal -0.32098133 0.59555896 -0.73639698
  outer loop
   vertex 0.0053859086 -0.026758977 0.0017085153
   vertex 0.0054458838 -0.022858806 0.0048366252
   vertex 0.0095765431 -0.020077424 0.0052855852
  endloop
 endfacet
 facet normal -0.32098133 0.59555896 -0.73639698
  outer loop
   vertex 0.0095765431 -0.020077424 0.0052855852
   vertex 0.013647227 -0.021196212 0.0026064354
   vertex 0.013587252 -0.025096383 -0.00052167452
  endloop
 endfacet
 facet normal -0.32098133 0.59555896 -0.73639698
  outer loop
   vertex 0.013587252 -0.025096383 -0.00052167452
   vertex 0.0094565926 -0.027877765 -0.00097063457
   vertex 0.0053859086 -0.026758977 0.0017085153
  endloop
 endfacet
 facet normal -0.32098133 0.59555896 -0.73639698
  outer loop
   vertex 0.0095765431 -0.020077424 0.0052855852
   vertex 0.013587252 -0.025096383 -0.00052167452
   vertex 0.0053859086 -0.026758977 0.0017085153
  endloop
 endfacet
endsolid solid
