solid solid
 facet normal 0.0054043582 0.9817504 -0.1900972
  outer loop
   vertex -0.0084027291 -0.019949325 -0.0016163157
   vertex -0.0067207828 -0.019606643 0.00020127196
   vertex -0.0030216619 -0.020265755 -0.0030975271
  endloop
 endfacet
 facet normal 0.0054043582 0.9817504 -0.1900972
  outer loop
   vertex -0.0084027291 -0.019949325 -0.0016163157
   vertex -0.0030216619 -0.020265755 -0.0030975271
   vertex -0.0047036083 -0.020608438 -0.0049151148
  endloop
 endfacet
 facet normal 0.64340872 0.37671358 -0.66641737
  outer loop
   vertex -0.0047036083 -0.020608438 -0.0049151148
   vertex -0.0030216619 -0.020265755 -0.0030975271
   vertex -0.0011955031 -0.024846415 -0.0039237816
  endloop
 endfacet
 facet normal 0.64340872 0.37671358 -0.66641737
  outer loop
   vertex -0.0047036083 -0.020608438 -0.0049151148
   vertex -0.0011955031 -0.024846415 -0.0039237816
   vertex -0.0028774494 -0.025189098 -0.0057413693
  endloop
 endfacet
 facet normal 0.63800434 -0.60503683 -0.47632015
  outer loop
   vertex -0.0028774494 -0.025189098 -0.0057413693
   vertex -0.0011955031 -0.024846415 -0.0039237816
   vertex -0.0030684652 -0.028767963 -0.001451237
  endloop
 endfacet
 facet normal 0.63800434 -0.60503683 -0.47632015
  outer loop
   vertex -0.0028774494 -0.025189098 -0.0057413693
   vertex -0.0030684652 -0.028767963 -0.001451237
   vertex -0.0047504115 -0.029110645 -0.0032688247
  endloop
 endfacet
 facet normal -0.0054043582 -0.9817504 0.1900972
  outer loop
   vertex -0.0047504115 -0.029110645 -0.0032688247
   vertex -0.0030684652 -0.028767963 -0.001451237
   vertex -0.006767586 -0.028108851 0.0018475621
  endloop
 endfacet
 facet normal -0.0054043582 -0.9817504 0.1900972
  outer loop
   vertex -0.0047504115 -0.029110645 -0.0032688247
   vertex -0.006767586 -0.028108851 0.0018475621
   vertex -0.0084495324 -0.028451533 2.9974394e-05
  endloop
 endfacet
 facet normal 0.67277855 0.13707293 0.7270351
  outer loop
   vertex -0.0011955031 -0.024846415 -0.0039237816
   vertex -0.0030216619 -0.020265755 -0.0030975271
   vertex -0.0067207828 -0.019606643 0.00020127196
  endloop
 endfacet
 facet normal 0.67277855 0.13707293 0.7270351
  outer loop
   vertex -0.0067207828 -0.019606643 0.00020127196
   vertex -0.0085937449 -0.023528191 0.0026738166
   vertex -0.006767586 -0.028108851 0.0018475621
  endloop
 endfacet
 facet normal 0.67277855 0.13707293 0.7270351
  outer loop
   vertex -0.006767586 -0.028108851 0.0018475621
   vertex -0.0030684652 -0.028767963 -0.001451237
   vertex -0.0011955031 -0.024846415 -0.0039237816
  endloop
 endfacet
 facet normal 0.67277855 0.13707293 0.7270351
  outer loop
   vertex -0.0067207828 -0.019606643 0.00020127196
   vertex -0.006767586 -0.028108851 0.0018475621
   vertex -0.0011955031 -0.024846415 -0.0039237816
  endloop
 endfacet
 facet normal -0.64340872 -0.37671358 0.66641737
  outer loop
   vertex -0.0084495324 -0.028451533 2.9974394e-05
   vertex -0.006767586 -0.028108851 0.0018475621
   vertex -0.0085937449 -0.023528191 0.0026738166
  endloop
 endfacet
 facet normal -0.64340872 -0.37671358 0.66641737
  outer loop
   vertex -0.0084495324 -0.028451533 2.9974394e-05
   vertex -0.0085937449 -0.023528191 0.0026738166
   vertex -0.010275691 -0.023870873 0.00085622887
  endloop
 endfacet
 facet normal -0.63800434 0.60503683 0.47632015
  outer loop
   vertex -0.010275691 -0.023870873 0.00085622887
   vertex -0.0085937449 -0.023528191 0.0026738166
   vertex -0.0067207828 -0.019606643 0.00020127196
  endloop
 endfacet
 facet normal -0.63800434 0.60503683 0.47632015
  outer loop
   vertex -0.010275691 -0.023870873 0.00085622887
   vertex -0.0067207828 -0.019606643 0.00020127196
   vertex -0.0084027291 -0.019949325 -0.0016163157
  endloop
 endfacet
 facet normal -0.67277855 -0.13707293 -0.7270351
  outer loop
   vertex -0.010275691 -0.023870873 0.00085622887
   vertex -0.0084027291 -0.019949325 -0.0016163157
   vertex -0.0047036083 -0.020608438 -0.0049151148
  endloop
 endfacet
 facet normal -0.67277855 -0.13707293 -0.7270351
  outer loop
   vertex -0.0047036083 -0.020608438 -0.0049151148
   vertex -0.0028774494 -0.025189098 -0.0057413693
   vertex -0.0047504115 -0.029110645 -0.0032688247
  endloop
 endfacet
 facet normal -0.67277855 -0.13707293 -0.7270351
  outer loop
   vertex -0.0047504115 -0.029110645 -0.0032688247
   vertex -0.0084495324 -0.028451533 2.9974394e-05
   vertex -0.010275691 -0.023870873 0.00085622887
  endloop
 endfacet
 facet normal -0.67277855 -0.13707293 -0.7270351
  outer loop
   vertex -0.0047036083 -0.020608438 -0.0049151148
   vertex -0.0047504115 -0.029110645 -0.0032688247
   vertex -0.010275691 -0.023870873 0.00085622887
  endloop
 endfacet
endsolid solid
