solid solid
 facet normal -0.63422267 0.58705301 0.50312062
  outer loop
   vertex 0.0024539213 -0.021059837 0.00034739439
   vertex 0.0037197096 -0.021500903 0.0024576647
   vertex 0.0066412091 -0.017550452 0.0015309626
  endloop
 endfacet
 facet normal -0.63422267 0.58705301 0.50312062
  outer loop
   vertex 0.0024539213 -0.021059837 0.00034739439
   vertex 0.0066412091 -0.017550452 0.0015309626
   vertex 0.0053754208 -0.017109386 -0.00057930774
  endloop
 endfacet
 facet normal 0.18890723 0.9777647 0.091050788
  outer loop
   vertex 0.0053754208 -0.017109386 -0.00057930774
   vertex 0.0066412091 -0.017550452 0.0015309626
   vertex 0.010848223 -0.018117241 -0.0011109646
  endloop
 endfacet
 facet normal 0.18890723 0.9777647 0.091050788
  outer loop
   vertex 0.0053754208 -0.017109386 -0.00057930774
   vertex 0.010848223 -0.018117241 -0.0011109646
   vertex 0.0095824352 -0.017676175 -0.003221235
  endloop
 endfacet
 facet normal 0.8231299 0.39071167 -0.41206984
  outer loop
   vertex 0.0095824352 -0.017676175 -0.003221235
   vertex 0.010848223 -0.018117241 -0.0011109646
   vertex 0.012133738 -0.02263448 -0.0028261897
  endloop
 endfacet
 facet normal 0.8231299 0.39071167 -0.41206984
  outer loop
   vertex 0.0095824352 -0.017676175 -0.003221235
   vertex 0.012133738 -0.02263448 -0.0028261897
   vertex 0.01086795 -0.022193415 -0.00493646
  endloop
 endfacet
 facet normal 0.63422267 -0.58705301 -0.50312062
  outer loop
   vertex 0.01086795 -0.022193415 -0.00493646
   vertex 0.012133738 -0.02263448 -0.0028261897
   vertex 0.0092122388 -0.026584931 -0.0018994876
  endloop
 endfacet
 facet normal 0.63422267 -0.58705301 -0.50312062
  outer loop
   vertex 0.01086795 -0.022193415 -0.00493646
   vertex 0.0092122388 -0.026584931 -0.0018994876
   vertex 0.0079464505 -0.026143866 -0.0040097579
  endloop
 endfacet
 facet normal 0.50631534 -0.17642623 0.84410815
  outer loop
   vertex 0.010848223 -0.018117241 -0.0011109646
   vertex 0.0066412091 -0.017550452 0.0015309626
   vertex 0.0037197096 -0.021500903 0.0024576647
  endloop
 endfacet
 facet normal 0.50631534 -0.17642623 0.84410815
  outer loop
   vertex 0.0037197096 -0.021500903 0.0024576647
   vertex 0.0050052244 -0.026018143 0.00074243963
   vertex 0.0092122388 -0.026584931 -0.0018994876
  endloop
 endfacet
 facet normal 0.50631534 -0.17642623 0.84410815
  outer loop
   vertex 0.0092122388 -0.026584931 -0.0018994876
   vertex 0.012133738 -0.02263448 -0.0028261897
   vertex 0.010848223 -0.018117241 -0.0011109646
  endloop
 endfacet
 facet normal 0.50631534 -0.17642623 0.84410815
  outer loop
   vertex 0.0037197096 -0.021500903 0.0024576647
   vertex 0.0092122388 -0.026584931 -0.0018994876
   vertex 0.010848223 -0.018117241 -0.0011109646
  endloop
 endfacet
 facet normal -0.18890723 -0.9777647 -0.091050788
  outer loop
   vertex 0.0079464505 -0.026143866 -0.0040097579
   vertex 0.0092122388 -0.026584931 -0.0018994876
   vertex 0.0050052244 -0.026018143 0.00074243963
  endloop
 endfacet
 facet normal -0.18890723 -0.9777647 -0.091050788
  outer loop
   vertex 0.0079464505 -0.026143866 -0.0040097579
   vertex 0.0050052244 -0.026018143 0.00074243963
   vertex 0.0037394361 -0.025577077 -0.0013678307
  endloop
 endfacet
 facet normal -0.8231299 -0.39071167 0.41206984
  outer loop
   vertex 0.0037394361 -0.025577077 -0.0013678307
   vertex 0.0050052244 -0.026018143 0.00074243963
   vertex 0.0037197096 -0.021500903 0.0024576647
  endloop
 endfacet
 facet normal -0.8231299 -0.39071167 0.41206984
  outer loop
   vertex 0.0037394361 -0.025577077 -0.0013678307
   vertex 0.0037197096 -0.021500903 0.0024576647
   vertex 0.0024539213 -0.021059837 0.00034739439
  endloop
 endfacet
 facet normal -0.50631534 0.17642623 -0.84410815
  outer loop
   vertex 0.0037394361 -0.025577077 -0.0013678307
   vertex 0.0024539213 -0.021059837 0.00034739439
   vertex 0.0053754208 -0.017109386 -0.00057930774
  endloop
 endfacet
 facet normal -0.50631534 0.17642623 -0.84410815
  outer loop
   vertex 0.0053754208 -0.017109386 -0.00057930774
   vertex 0.0095824352 -0.017676175 -0.003221235
   vertex 0.01086795 -0.022193415 -0.00493646
  endloop
 endfacet
 facet normal -0.50631534 0.17642623 -0.84410815
  outer loop
   vertex 0.01086795 -0.022193415 -0.00493646
   vertex 0.0079464505 -0.026143866 -0.0040097579
   vertex 0.0037394361 -0.025577077 -0.0013678307
  endloop
 endfacet
 facet normal -0.50631534 0.17642623 -0.84410815
  outer loop
   vertex 0.0053754208 -0.017109386 -0.00057930774
   vertex 0.01086795 -0.022193415 -0.00493646
   vertex 0.0037394361 -0.025577077 -0.0013678307
  endloop
 endfacet
endsolid solid
