solid solid
 facet normal 0.57585417 0.8175507 0.0016798781
  outer loop
   vertex -0.018865312 -0.018894074 -0.0046398635
   vertex -0.020757919 -0.017562933 -0.0036932366
   vertex -0.01921456 -0.01865953 0.00093445384
  endloop
 endfacet
 facet normal 0.57585417 0.8175507 0.0016798781
  outer loop
   vertex -0.018865312 -0.018894074 -0.0046398635
   vertex -0.01921456 -0.01865953 0.00093445384
   vertex -0.017321953 -0.019990671 -1.2173098e-05
  endloop
 endfacet
 facet normal 0.55524466 0.21883919 0.80237944
  outer loop
   vertex -0.017321953 -0.019990671 -1.2173098e-05
   vertex -0.01921456 -0.01865953 0.00093445384
   vertex -0.020936402 -0.022747927 0.0032410249
  endloop
 endfacet
 facet normal 0.55524466 0.21883919 0.80237944
  outer loop
   vertex -0.017321953 -0.019990671 -1.2173098e-05
   vertex -0.020936402 -0.022747927 0.0032410249
   vertex -0.019043795 -0.024079068 0.002294398
  endloop
 endfacet
 facet normal -0.020609518 -0.59871151 0.80069955
  outer loop
   vertex -0.019043795 -0.024079068 0.002294398
   vertex -0.020936402 -0.022747927 0.0032410249
   vertex -0.024201603 -0.025739726 0.00091990549
  endloop
 endfacet
 facet normal -0.020609518 -0.59871151 0.80069955
  outer loop
   vertex -0.019043795 -0.024079068 0.002294398
   vertex -0.024201603 -0.025739726 0.00091990549
   vertex -0.022308996 -0.027070867 -2.6721449e-05
  endloop
 endfacet
 facet normal -0.57585417 -0.8175507 -0.0016798781
  outer loop
   vertex -0.022308996 -0.027070867 -2.6721449e-05
   vertex -0.024201603 -0.025739726 0.00091990549
   vertex -0.025744962 -0.02464313 -0.003707785
  endloop
 endfacet
 facet normal -0.57585417 -0.8175507 -0.0016798781
  outer loop
   vertex -0.022308996 -0.027070867 -2.6721449e-05
   vertex -0.025744962 -0.02464313 -0.003707785
   vertex -0.023852355 -0.025974271 -0.0046544119
  endloop
 endfacet
 facet normal -0.75704275 0.53245644 0.37865079
  outer loop
   vertex -0.020936402 -0.022747927 0.0032410249
   vertex -0.01921456 -0.01865953 0.00093445384
   vertex -0.020757919 -0.017562933 -0.0036932366
  endloop
 endfacet
 facet normal -0.75704275 0.53245644 0.37865079
  outer loop
   vertex -0.020757919 -0.017562933 -0.0036932366
   vertex -0.02402312 -0.020554733 -0.006014356
   vertex -0.025744962 -0.02464313 -0.003707785
  endloop
 endfacet
 facet normal -0.75704275 0.53245644 0.37865079
  outer loop
   vertex -0.025744962 -0.02464313 -0.003707785
   vertex -0.024201603 -0.025739726 0.00091990549
   vertex -0.020936402 -0.022747927 0.0032410249
  endloop
 endfacet
 facet normal -0.75704275 0.53245644 0.37865079
  outer loop
   vertex -0.020757919 -0.017562933 -0.0036932366
   vertex -0.025744962 -0.02464313 -0.003707785
   vertex -0.020936402 -0.022747927 0.0032410249
  endloop
 endfacet
 facet normal -0.55524466 -0.21883919 -0.80237944
  outer loop
   vertex -0.023852355 -0.025974271 -0.0046544119
   vertex -0.025744962 -0.02464313 -0.003707785
   vertex -0.02402312 -0.020554733 -0.006014356
  endloop
 endfacet
 facet normal -0.55524466 -0.21883919 -0.80237944
  outer loop
   vertex -0.023852355 -0.025974271 -0.0046544119
   vertex -0.02402312 -0.020554733 -0.006014356
   vertex -0.022130513 -0.021885874 -0.0069609829
  endloop
 endfacet
 facet normal 0.020609518 0.59871151 -0.80069955
  outer loop
   vertex -0.022130513 -0.021885874 -0.0069609829
   vertex -0.02402312 -0.020554733 -0.006014356
   vertex -0.020757919 -0.017562933 -0.0036932366
  endloop
 endfacet
 facet normal 0.020609518 0.59871151 -0.80069955
  outer loop
   vertex -0.022130513 -0.021885874 -0.0069609829
   vertex -0.020757919 -0.017562933 -0.0036932366
   vertex -0.018865312 -0.018894074 -0.0046398635
  endloop
 endfacet
 facet normal 0.75704275 -0.53245644 -0.37865079
  outer loop
   vertex -0.022130513 -0.021885874 -0.0069609829
   vertex -0.018865312 -0.018894074 -0.0046398635
   vertex -0.017321953 -0.019990671 -1.2173098e-05
  endloop
 endfacet
 facet normal 0.75704275 -0.53245644 -0.37865079
  outer loop
   vertex -0.017321953 -0.019990671 -1.2173098e-05
   vertex -0.019043795 -0.024079068 0.002294398
   vertex -0.022308996 -0.027070867 -2.6721449e-05
  endloop
 endfacet
 facet normal 0.75704275 -0.53245644 -0.37865079
  outer loop
   vertex -0.022308996 -0.027070867 -2.6721449e-05
   vertex -0.023852355 -0.025974271 -0.0046544119
   vertex -0.022130513 -0.021885874 -0.0069609829
  endloop
 endfacet
 facet normal 0.75704275 -0.53245644 -0.37865079
  outer loop
   vertex -0.017321953 -0.019990671 -1.2173098e-05
   vertex -0.022308996 -0.027070867 -2.6721449e-05
   vertex -0.022130513 -0.021885874 -0.0069609829
  endloop
 endfacet
endsolid solid
