solid solid
 facet normal 0.40270384 0.81841554 0.40990927
  outer loop
   vertex -0.0048185019 -0.019270105 0.008324759
   vertex -0.0030718033 -0.020680486 0.0094246992
   vertex -0.00011513015 -0.02013441 0.0054297168
  endloop
 endfacet
 facet normal 0.40270384 0.81841554 0.40990927
  outer loop
   vertex -0.0048185019 -0.019270105 0.008324759
   vertex -0.00011513015 -0.02013441 0.0054297168
   vertex -0.0018618287 -0.018724029 0.0043297765
  endloop
 endfacet
 facet normal 0.71346274 0.50379083 -0.48699664
  outer loop
   vertex -0.0018618287 -0.018724029 0.0043297765
   vertex -0.00011513015 -0.02013441 0.0054297168
   vertex -0.00038055238 -0.023405216 0.0016572664
  endloop
 endfacet
 facet normal 0.71346274 0.50379083 -0.48699664
  outer loop
   vertex -0.0018618287 -0.018724029 0.0043297765
   vertex -0.00038055238 -0.023405216 0.0016572664
   vertex -0.0021272509 -0.021994835 0.00055732614
  endloop
 endfacet
 facet normal 0.31075888 -0.31462473 -0.8969059
  outer loop
   vertex -0.0021272509 -0.021994835 0.00055732614
   vertex -0.00038055238 -0.023405216 0.0016572664
   vertex -0.0036026478 -0.027222097 0.0018797985
  endloop
 endfacet
 facet normal 0.31075888 -0.31462473 -0.8969059
  outer loop
   vertex -0.0021272509 -0.021994835 0.00055732614
   vertex -0.0036026478 -0.027222097 0.0018797985
   vertex -0.0053493463 -0.025811716 0.00077985826
  endloop
 endfacet
 facet normal -0.40270384 -0.81841554 -0.40990927
  outer loop
   vertex -0.0053493463 -0.025811716 0.00077985826
   vertex -0.0036026478 -0.027222097 0.0018797985
   vertex -0.006559321 -0.027768172 0.005874781
  endloop
 endfacet
 facet normal -0.40270384 -0.81841554 -0.40990927
  outer loop
   vertex -0.0053493463 -0.025811716 0.00077985826
   vertex -0.006559321 -0.027768172 0.005874781
   vertex -0.0083060195 -0.026357791 0.0047748407
  endloop
 endfacet
 facet normal 0.69867944 -0.56415251 0.43997611
  outer loop
   vertex -0.00038055238 -0.023405216 0.0016572664
   vertex -0.00011513015 -0.02013441 0.0054297168
   vertex -0.0030718033 -0.020680486 0.0094246992
  endloop
 endfacet
 facet normal 0.69867944 -0.56415251 0.43997611
  outer loop
   vertex -0.0030718033 -0.020680486 0.0094246992
   vertex -0.0062938987 -0.024497367 0.0096472314
   vertex -0.006559321 -0.027768172 0.005874781
  endloop
 endfacet
 facet normal 0.69867944 -0.56415251 0.43997611
  outer loop
   vertex -0.006559321 -0.027768172 0.005874781
   vertex -0.0036026478 -0.027222097 0.0018797985
   vertex -0.00038055238 -0.023405216 0.0016572664
  endloop
 endfacet
 facet normal 0.69867944 -0.56415251 0.43997611
  outer loop
   vertex -0.0030718033 -0.020680486 0.0094246992
   vertex -0.006559321 -0.027768172 0.005874781
   vertex -0.00038055238 -0.023405216 0.0016572664
  endloop
 endfacet
 facet normal -0.71346274 -0.50379083 0.48699664
  outer loop
   vertex -0.0083060195 -0.026357791 0.0047748407
   vertex -0.006559321 -0.027768172 0.005874781
   vertex -0.0062938987 -0.024497367 0.0096472314
  endloop
 endfacet
 facet normal -0.71346274 -0.50379083 0.48699664
  outer loop
   vertex -0.0083060195 -0.026357791 0.0047748407
   vertex -0.0062938987 -0.024497367 0.0096472314
   vertex -0.0080405973 -0.023086986 0.0085472911
  endloop
 endfacet
 facet normal -0.31075888 0.31462473 0.8969059
  outer loop
   vertex -0.0080405973 -0.023086986 0.0085472911
   vertex -0.0062938987 -0.024497367 0.0096472314
   vertex -0.0030718033 -0.020680486 0.0094246992
  endloop
 endfacet
 facet normal -0.31075888 0.31462473 0.8969059
  outer loop
   vertex -0.0080405973 -0.023086986 0.0085472911
   vertex -0.0030718033 -0.020680486 0.0094246992
   vertex -0.0048185019 -0.019270105 0.008324759
  endloop
 endfacet
 facet normal -0.69867944 0.56415251 -0.43997611
  outer loop
   vertex -0.0080405973 -0.023086986 0.0085472911
   vertex -0.0048185019 -0.019270105 0.008324759
   vertex -0.0018618287 -0.018724029 0.0043297765
  endloop
 endfacet
 facet normal -0.69867944 0.56415251 -0.43997611
  outer loop
   vertex -0.0018618287 -0.018724029 0.0043297765
   vertex -0.0021272509 -0.021994835 0.00055732614
   vertex -0.0053493463 -0.025811716 0.00077985826
  endloop
 endfacet
 facet normal -0.69867944 0.56415251 -0.43997611
  outer loop
   vertex -0.0053493463 -0.025811716 0.00077985826
   vertex -0.0083060195 -0.026357791 0.0047748407
   vertex -0.0080405973 -0.023086986 0.0085472911
  endloop
 endfacet
 facet normal -0.69867944 0.56415251 -0.43997611
  outer loop
   vertex -0.0018618287 -0.018724029 0.0043297765
   vertex -0.0053493463 -0.025811716 0.00077985826
   vertex -0.0080405973 -0.023086986 0.0085472911
  endloop
 endfacet
endsolid solid
