solid solid
 facet normal 0.75109897 0.40698181 0.51982319
  outer loop
   vertex -0.01742427 -0.023763425 0.0086603064
   vertex -0.016195342 -0.023311344 0.0065306683
   vertex -0.018398795 -0.018834555 0.006209481
  endloop
 endfacet
 facet normal 0.75109897 0.40698181 0.51982319
  outer loop
   vertex -0.01742427 -0.023763425 0.0086603064
   vertex -0.018398795 -0.018834555 0.006209481
   vertex -0.019627722 -0.019286636 0.0083391191
  endloop
 endfacet
 facet normal -0.0060997037 0.97889343 0.20428032
  outer loop
   vertex -0.019627722 -0.019286636 0.0083391191
   vertex -0.018398795 -0.018834555 0.006209481
   vertex -0.022752875 -0.018358444 0.003797987
  endloop
 endfacet
 facet normal -0.0060997037 0.97889343 0.20428032
  outer loop
   vertex -0.019627722 -0.019286636 0.0083391191
   vertex -0.022752875 -0.018358444 0.003797987
   vertex -0.023981803 -0.018810525 0.0059276251
  endloop
 endfacet
 facet normal -0.75719867 0.5719116 -0.31554287
  outer loop
   vertex -0.023981803 -0.018810525 0.0059276251
   vertex -0.022752875 -0.018358444 0.003797987
   vertex -0.024903502 -0.022359121 0.0017076802
  endloop
 endfacet
 facet normal -0.75719867 0.5719116 -0.31554287
  outer loop
   vertex -0.023981803 -0.018810525 0.0059276251
   vertex -0.024903502 -0.022359121 0.0017076802
   vertex -0.02613243 -0.022811202 0.0038373183
  endloop
 endfacet
 facet normal -0.75109897 -0.40698181 -0.51982319
  outer loop
   vertex -0.02613243 -0.022811202 0.0038373183
   vertex -0.024903502 -0.022359121 0.0017076802
   vertex -0.02270005 -0.02683591 0.0020288675
  endloop
 endfacet
 facet normal -0.75109897 -0.40698181 -0.51982319
  outer loop
   vertex -0.02613243 -0.022811202 0.0038373183
   vertex -0.02270005 -0.02683591 0.0020288675
   vertex -0.023928978 -0.027287991 0.0041585056
  endloop
 endfacet
 facet normal 0.49157117 0.18083246 -0.85185527
  outer loop
   vertex -0.022752875 -0.018358444 0.003797987
   vertex -0.018398795 -0.018834555 0.006209481
   vertex -0.016195342 -0.023311344 0.0065306683
  endloop
 endfacet
 facet normal 0.49157117 0.18083246 -0.85185527
  outer loop
   vertex -0.016195342 -0.023311344 0.0065306683
   vertex -0.01834597 -0.027312021 0.0044403615
   vertex -0.02270005 -0.02683591 0.0020288675
  endloop
 endfacet
 facet normal 0.49157117 0.18083246 -0.85185527
  outer loop
   vertex -0.02270005 -0.02683591 0.0020288675
   vertex -0.024903502 -0.022359121 0.0017076802
   vertex -0.022752875 -0.018358444 0.003797987
  endloop
 endfacet
 facet normal 0.49157117 0.18083246 -0.85185527
  outer loop
   vertex -0.016195342 -0.023311344 0.0065306683
   vertex -0.02270005 -0.02683591 0.0020288675
   vertex -0.022752875 -0.018358444 0.003797987
  endloop
 endfacet
 facet normal 0.0060997037 -0.97889343 -0.20428032
  outer loop
   vertex -0.023928978 -0.027287991 0.0041585056
   vertex -0.02270005 -0.02683591 0.0020288675
   vertex -0.01834597 -0.027312021 0.0044403615
  endloop
 endfacet
 facet normal 0.0060997037 -0.97889343 -0.20428032
  outer loop
   vertex -0.023928978 -0.027287991 0.0041585056
   vertex -0.01834597 -0.027312021 0.0044403615
   vertex -0.019574897 -0.027764102 0.0065699996
  endloop
 endfacet
 facet normal 0.75719867 -0.5719116 0.31554287
  outer loop
   vertex -0.019574897 -0.027764102 0.0065699996
   vertex -0.01834597 -0.027312021 0.0044403615
   vertex -0.016195342 -0.023311344 0.0065306683
  endloop
 endfacet
 facet normal 0.75719867 -0.5719116 0.31554287
  outer loop
   vertex -0.019574897 -0.027764102 0.0065699996
   vertex -0.016195342 -0.023311344 0.0065306683
   vertex -0.01742427 -0.023763425 0.0086603064
  endloop
 endfacet
 facet normal -0.49157117 -0.18083246 0.85185527
  outer loop
   vertex -0.019574897 -0.027764102 0.0065699996
   vertex -0.01742427 -0.023763425 0.0086603064
   vertex -0.019627722 -0.019286636 0.0083391191
  endloop
 endfacet
 facet normal -0.49157117 -0.18083246 0.85185527
  outer loop
   vertex -0.019627722 -0.019286636 0.0083391191
   vertex -0.023981803 -0.018810525 0.0059276251
   vertex -0.02613243 -0.022811202 0.0038373183
  endloop
 endfacet
 facet normal -0.49157117 -0.18083246 0.85185527
  outer loop
   vertex -0.02613243 -0.022811202 0.0038373183
   vertex -0.023928978 -0.027287991 0.0041585056
   vertex -0.019574897 -0.027764102 0.0065699996
  endloop
 endfacet
 facet normal -0.49157117 -0.18083246 0.85185527
  outer loop
   vertex -0.019627722 -0.019286636 0.0083391191
   vertex -0.02613243 -0.022811202 0.0038373183
   vertex -0.019574897 -0.027764102 0.0065699996
  endloop
 endfacet
endsolid solid
