solid solid
 facet normal 0.43530604 0.41261436 0.80016126
  outer loop
   vertex 0.026332793 -0.023880337 -0.00010383639
   vertex 0.025334452 -0.021667677 -0.00070170548
   vertex 0.021300102 -0.022744832 0.0020485234
  endloop
 endfacet
 facet normal 0.43530604 0.41261436 0.80016126
  outer loop
   vertex 0.026332793 -0.023880337 -0.00010383639
   vertex 0.021300102 -0.022744832 0.0020485234
   vertex 0.022298443 -0.024957493 0.0026463925
  endloop
 endfacet
 facet normal -0.48111683 0.019738339 0.87643425
  outer loop
   vertex 0.022298443 -0.024957493 0.0026463925
   vertex 0.021300102 -0.022744832 0.0020485234
   vertex 0.017397997 -0.025070083 -4.1161995e-05
  endloop
 endfacet
 facet normal -0.48111683 0.019738339 0.87643425
  outer loop
   vertex 0.022298443 -0.024957493 0.0026463925
   vertex 0.017397997 -0.025070083 -4.1161995e-05
   vertex 0.018396338 -0.027282743 0.00055670709
  endloop
 endfacet
 facet normal -0.91642286 -0.39287602 0.076272971
  outer loop
   vertex 0.018396338 -0.027282743 0.00055670709
   vertex 0.017397997 -0.025070083 -4.1161995e-05
   vertex 0.017530242 -0.026318177 -0.0048810763
  endloop
 endfacet
 facet normal -0.91642286 -0.39287602 0.076272971
  outer loop
   vertex 0.018396338 -0.027282743 0.00055670709
   vertex 0.017530242 -0.026318177 -0.0048810763
   vertex 0.018528583 -0.028530838 -0.0042832073
  endloop
 endfacet
 facet normal -0.43530604 -0.41261436 -0.80016126
  outer loop
   vertex 0.018528583 -0.028530838 -0.0042832073
   vertex 0.017530242 -0.026318177 -0.0048810763
   vertex 0.021564591 -0.025241022 -0.0076313053
  endloop
 endfacet
 facet normal -0.43530604 -0.41261436 -0.80016126
  outer loop
   vertex 0.018528583 -0.028530838 -0.0042832073
   vertex 0.021564591 -0.025241022 -0.0076313053
   vertex 0.022562932 -0.027453682 -0.0070334362
  endloop
 endfacet
 facet normal -0.39933644 0.8850643 -0.23914764
  outer loop
   vertex 0.017397997 -0.025070083 -4.1161995e-05
   vertex 0.021300102 -0.022744832 0.0020485234
   vertex 0.025334452 -0.021667677 -0.00070170548
  endloop
 endfacet
 facet normal -0.39933644 0.8850643 -0.23914764
  outer loop
   vertex 0.025334452 -0.021667677 -0.00070170548
   vertex 0.025466696 -0.022915771 -0.0055416198
   vertex 0.021564591 -0.025241022 -0.0076313053
  endloop
 endfacet
 facet normal -0.39933644 0.8850643 -0.23914764
  outer loop
   vertex 0.021564591 -0.025241022 -0.0076313053
   vertex 0.017530242 -0.026318177 -0.0048810763
   vertex 0.017397997 -0.025070083 -4.1161995e-05
  endloop
 endfacet
 facet normal -0.39933644 0.8850643 -0.23914764
  outer loop
   vertex 0.025334452 -0.021667677 -0.00070170548
   vertex 0.021564591 -0.025241022 -0.0076313053
   vertex 0.017397997 -0.025070083 -4.1161995e-05
  endloop
 endfacet
 facet normal 0.48111683 -0.019738339 -0.87643425
  outer loop
   vertex 0.022562932 -0.027453682 -0.0070334362
   vertex 0.021564591 -0.025241022 -0.0076313053
   vertex 0.025466696 -0.022915771 -0.0055416198
  endloop
 endfacet
 facet normal 0.48111683 -0.019738339 -0.87643425
  outer loop
   vertex 0.022562932 -0.027453682 -0.0070334362
   vertex 0.025466696 -0.022915771 -0.0055416198
   vertex 0.026465037 -0.025128432 -0.0049437507
  endloop
 endfacet
 facet normal 0.91642286 0.39287602 -0.076272971
  outer loop
   vertex 0.026465037 -0.025128432 -0.0049437507
   vertex 0.025466696 -0.022915771 -0.0055416198
   vertex 0.025334452 -0.021667677 -0.00070170548
  endloop
 endfacet
 facet normal 0.91642286 0.39287602 -0.076272971
  outer loop
   vertex 0.026465037 -0.025128432 -0.0049437507
   vertex 0.025334452 -0.021667677 -0.00070170548
   vertex 0.026332793 -0.023880337 -0.00010383639
  endloop
 endfacet
 facet normal 0.39933644 -0.8850643 0.23914764
  outer loop
   vertex 0.026465037 -0.025128432 -0.0049437507
   vertex 0.026332793 -0.023880337 -0.00010383639
   vertex 0.022298443 -0.024957493 0.0026463925
  endloop
 endfacet
 facet normal 0.39933644 -0.8850643 0.23914764
  outer loop
   vertex 0.022298443 -0.024957493 0.0026463925
   vertex 0.018396338 -0.027282743 0.00055670709
   vertex 0.018528583 -0.028530838 -0.0042832073
  endloop
 endfacet
 facet normal 0.39933644 -0.8850643 0.23914764
  outer loop
   vertex 0.018528583 -0.028530838 -0.0042832073
   vertex 0.022562932 -0.027453682 -0.0070334362
   vertex 0.026465037 -0.025128432 -0.0049437507
  endloop
 endfacet
 facet normal 0.39933644 -0.8850643 0.23914764
  outer loop
   vertex 0.022298443 -0.024957493 0.0026463925
   vertex 0.018528583 -0.028530838 -0.0042832073
   vertex 0.026465037 -0.025128432 -0.0049437507
  endloop
 endfacet
endsolid solid
