solid solid
 facet normal 0.5 0.866025 -0
  outer loop
   vertex 0 0.005 -0.00125
   vertex 0 0.005 0.00125
   vertex 0.00433013 0.0025 0.00125
  endloop
 endfacet
 facet normal 0.5 0.866025 0
  outer loop
   vertex 0 0.005 -0.00125
   vertex 0.00433013 0.0025 0.00125
   vertex 0.00433013 0.0025 -0.00125
  endloop
 endfacet
 facet normal 1 0 -0
  outer loop
   vertex 0.00433013 0.0025 -0.00125
   vertex 0.00433013 0.0025 0.00125
   vertex 0.00433013 -0.0025 0.00125
  endloop
 endfacet
 facet normal 1 0 0
  outer loop
   vertex 0.00433013 0.0025 -0.00125
   vertex 0.00433013 -0.0025 0.00125
   vertex 0.00433013 -0.0025 -0.00125
  endloop
 endfacet
 facet normal 0.5 -0.866025 0
  outer loop
   vertex 0.00433013 -0.0025 -0.00125
   vertex 0.00433013 -0.0025 0.00125
   vertex 0 -0.005 0.00125
  endloop
 endfacet
 facet normal 0.5 -0.866025 0
  outer loop
   vertex 0.00433013 -0.0025 -0.00125
   vertex 0 -0.005 0.00125
   vertex 0 -0.005 -0.00125
  endloop
 endfacet
 facet normal -0.5 -0.866025 0
  outer loop
   vertex 0 -0.005 -0.00125
   vertex 0 -0.005 0.00125
   vertex -0.00433013 -0.0025 0.00125
  endloop
 endfacet
 facet normal -0.5 -0.866025 0
  outer loop
   vertex 0 -0.005 -0.00125
   vertex -0.00433013 -0.0025 0.00125
   vertex -0.00433013 -0.0025 -0.00125
  endloop
 endfacet
 facet normal 0 -0 1
  outer loop
   vertex 0.00433013 -0.0025 0.00125
   vertex 0.00433013 0.0025 0.00125
   vertex 0 0.005 0.00125
  endloop
 endfacet
 facet normal 0 0 1
  outer loop
   vertex 0 0.005 0.00125
   vertex -0.00433013 0.0025 0.00125
   vertex -0.00433013 -0.0025 0.00125
  endloop
 endfacet
 facet normal -0 0 1
  outer loop
   vertex -0.00433013 -0.0025 0.00125
   vertex 0 -0.005 0.00125
   vertex 0.00433013 -0.0025 0.00125
  endloop
 endfacet
 facet normal 0 0 1
  outer loop
   vertex 0 0.005 0.00125
   vertex -0.00433013 -0.0025 0.00125
   vertex 0.00433013 -0.0025 0.00125
  endloop
 endfacet
 facet normal -1 0 0
  outer loop
   vertex -0.00433013 -0.0025 -0.00125
   vertex -0.00433013 -0.0025 0.00125
   vertex -0.00433013 0.0025 0.00125
  endloop
 endfacet
 facet normal -1 0 0
  outer loop
   vertex -0.00433013 -0.0025 -0.00125
   vertex -0.00433013 0.0025 0.00125
   vertex -0.00433013 0.0025 -0.00125
  endloop
 endfacet
 facet normal -0.5 0.866025 0
  outer loop
   vertex -0.00433013 0.0025 -0.00125
   vertex -0.00433013 0.0025 0.00125
   vertex 0 0.005 0.00125
  endloop
 endfacet
 facet normal -0.5 0.866025 0
  outer loop
   vertex -0.00433013 0.0025 -0.00125
   vertex 0 0.005 0.00125
   vertex 0 0.005 -0.00125
  endloop
 endfacet
 facet normal 0 0 -1
  outer loop
   vertex -0.00433013 0.0025 -0.00125
   vertex 0 0.005 -0.00125
   vertex 0.00433013 0.0025 -0.00125
  endloop
 endfacet
 facet normal 0 -0 -1
  outer loop
   vertex 0.00433013 0.0025 -0.00125
   vertex 0.00433013 -0.0025 -0.00125
   vertex 0 -0.005 -0.00125
  endloop
 endfacet
 facet normal 0 0 -1
  outer loop
   vertex 0 -0.005 -0.00125
   vertex -0.00433013 -0.0025 -0.00125
   vertex -0.00433013 0.0025 -0.00125
  endloop
 endfacet
 facet normal -0 0 -1
  outer loop
   vertex 0.00433013 0.0025 -0.00125
   vertex 0 -0.005 -0.00125
   vertex -0.00433013 0.0025 -0.00125
  endloop
 endfacet
endsolid solid
