solid 
facet normal 0.5 0.8660254 0
 outer loop
  vertex 0 0.01 -0.0025
  vertex 0 0.01 0.0025
  vertex 0.008660254 0.005 0.0025
 endloop
endfacet
facet normal 0.5 0.8660254 -0
 outer loop
  vertex 0 0.01 -0.0025
  vertex 0.008660254 0.005 0.0025
  vertex 0.008660254 0.005 -0.0025
 endloop
endfacet
facet normal 1 -0 0
 outer loop
  vertex 0.008660254 0.005 -0.0025
  vertex 0.008660254 0.005 0.0025
  vertex 0.008660254 -0.005 0.0025
 endloop
endfacet
facet normal 1 -0 0
 outer loop
  vertex 0.008660254 0.005 -0.0025
  vertex 0.008660254 -0.005 0.0025
  vertex 0.008660254 -0.005 -0.0025
 endloop
endfacet
facet normal 0.5 -0.8660254 0
 outer loop
  vertex 0.008660254 -0.005 -0.0025
  vertex 0.008660254 -0.005 0.0025
  vertex 0 -0.01 0.0025
 endloop
endfacet
facet normal 0.5 -0.8660254 0
 outer loop
  vertex 0.008660254 -0.005 -0.0025
  vertex 0 -0.01 0.0025
  vertex 0 -0.01 -0.0025
 endloop
endfacet
facet normal -0.5 -0.8660254 -0
 outer loop
  vertex 0 -0.01 -0.0025
  vertex 0 -0.01 0.0025
  vertex -0.008660254 -0.005 0.0025
 endloop
endfacet
facet normal -0.5 -0.8660254 0
 outer loop
  vertex 0 -0.01 -0.0025
  vertex -0.008660254 -0.005 0.0025
  vertex -0.008660254 -0.005 -0.0025
 endloop
endfacet
facet normal 0 0 1
 outer loop
  vertex 0.008660254 -0.005 0.0025
  vertex 0.008660254 0.005 0.0025
  vertex 0 0.01 0.0025
 endloop
endfacet
facet normal 0 0 1
 outer loop
  vertex 0 0.01 0.0025
  vertex -0.008660254 0.005 0.0025
  vertex -0.008660254 -0.005 0.0025
 endloop
endfacet
facet normal 0 0 1
 outer loop
  vertex -0.008660254 -0.005 0.0025
  vertex 0 -0.01 0.0025
  vertex 0.008660254 -0.005 0.0025
 endloop
endfacet
facet normal 0 -0 1
 outer loop
  vertex 0 0.01 0.0025
  vertex -0.008660254 -0.005 0.0025
  vertex 0.008660254 -0.005 0.0025
 endloop
endfacet
facet normal -1 -0 -0
 outer loop
  vertex -0.008660254 -0.005 -0.0025
  vertex -0.008660254 -0.005 0.0025
  vertex -0.008660254 0.005 0.0025
 endloop
endfacet
facet normal -1 -0 0
 outer loop
  vertex -0.008660254 -0.005 -0.0025
  vertex -0.008660254 0.005 0.0025
  vertex -0.008660254 0.005 -0.0025
 endloop
endfacet
facet normal -0.5 0.8660254 0
 outer loop
  vertex -0.008660254 0.005 -0.0025
  vertex -0.008660254 0.005 0.0025
  vertex 0 0.01 0.0025
 endloop
endfacet
facet normal -0.5 0.8660254 0
 outer loop
  vertex -0.008660254 0.005 -0.0025
  vertex 0 0.01 0.0025
  vertex 0 0.01 -0.0025
 endloop
endfacet
facet normal -0 0 -1
 outer loop
  vertex -0.008660254 0.005 -0.0025
  vertex 0 0.01 -0.0025
  vertex 0.008660254 0.005 -0.0025
 endloop
endfacet
facet normal 0 0 -1
 outer loop
  vertex 0.008660254 0.005 -0.0025
  vertex 0.008660254 -0.005 -0.0025
  vertex 0 -0.01 -0.0025
 endloop
endfacet
facet normal 0 0 -1
 outer loop
  vertex 0 -0.01 -0.0025
  vertex -0.008660254 -0.005 -0.0025
  vertex -0.008660254 0.005 -0.0025
 endloop
endfacet
facet normal 0 0 -1
 outer loop
  vertex 0.008660254 0.005 -0.0025
  vertex 0 -0.01 -0.0025
  vertex -0.008660254 0.005 -0.0025
 endloop
endfacet
endsolid 
