solid 
facet normal -0.9475149 0.31962255 0.007554213
 outer loop
  vertex -0.005266267 -0.008096641 -0.0023032813
  vertex -0.0065019717 -0.011794373 -0.0008431772
  vertex -0.0048299027 -0.0068847053 0.0011516928
 endloop
endfacet
facet normal 0.8211867 -0.49355564 0.28645283
 outer loop
  vertex -0.002471367 -0.009022102 -0.0020653459
  vertex -0.0038178253 -0.009518074 0.0009400493
  vertex -0.0048337397 -0.01262385 -0.0014988092
 endloop
endfacet
facet normal 0.50573397 -0.85850173 0.084899604
 outer loop
  vertex -0.002471367 -0.009022102 -0.0020653459
  vertex -0.0012482372 -0.007995063 0.001034032
  vertex -0.0038178253 -0.009518074 0.0009400493
 endloop
endfacet
facet normal -0.08695872 -0.0094968965 -0.99616665
 outer loop
  vertex -0.0064217676 -0.012120532 -0.004146195
  vertex -0.004761579 -0.008214866 -0.004328353
  vertex -0.0034682597 -0.00896019 -0.0044341455
 endloop
endfacet
facet normal -0.41870442 -0.9046654 0.07916471
 outer loop
  vertex -0.0064217676 -0.012120532 -0.004146195
  vertex -0.0048337397 -0.01262385 -0.0014988092
  vertex -0.0065019717 -0.011794373 -0.0008431772
 endloop
endfacet
facet normal -0.89632916 0.36957955 -0.24495928
 outer loop
  vertex -0.0064217676 -0.012120532 -0.004146195
  vertex -0.005266267 -0.008096641 -0.0023032813
  vertex -0.004761579 -0.008214866 -0.004328353
 endloop
endfacet
facet normal -0.9531856 0.29778448 -0.052550215
 outer loop
  vertex -0.0065019717 -0.011794373 -0.0008431772
  vertex -0.005266267 -0.008096641 -0.0023032813
  vertex -0.0064217676 -0.012120532 -0.004146195
 endloop
endfacet
facet normal 0.7626813 -0.553 -0.33542246
 outer loop
  vertex -0.0034682597 -0.00896019 -0.0044341455
  vertex -0.002471367 -0.009022102 -0.0020653459
  vertex -0.0048337397 -0.01262385 -0.0014988092
 endloop
endfacet
facet normal 0.28439394 -0.94776183 -0.14445616
 outer loop
  vertex -0.0034682597 -0.00896019 -0.0044341455
  vertex 0.0014181667 -0.0076420666 -0.0034622052
  vertex -0.002471367 -0.009022102 -0.0020653459
 endloop
endfacet
facet normal 0.6155298 -0.61962014 -0.4870256
 outer loop
  vertex -0.0034682597 -0.00896019 -0.0044341455
  vertex -0.0048337397 -0.01262385 -0.0014988092
  vertex -0.0064217676 -0.012120532 -0.004146195
 endloop
endfacet
facet normal -0.47236815 -0.18141642 -0.8625291
 outer loop
  vertex -0.0074670864 7.613992e-05 -0.006773075
  vertex -0.0044137463 0.0011625169 -0.00867375
  vertex -0.0027543027 -0.0027830957 -0.008752668
 endloop
endfacet
facet normal 0.003415231 -0.46880364 -0.88329583
 outer loop
  vertex -0.004485974 -0.005710287 -0.0072057755
  vertex -0.0027543027 -0.0027830957 -0.008752668
  vertex 7.0891845e-05 -0.0057898513 -0.007145928
 endloop
endfacet
facet normal -0.47092837 -0.17800732 -0.86402535
 outer loop
  vertex -0.004485974 -0.005710287 -0.0072057755
  vertex -0.0074670864 7.613992e-05 -0.006773075
  vertex -0.0027543027 -0.0027830957 -0.008752668
 endloop
endfacet
facet normal -0.9505623 -0.11622341 -0.2879642
 outer loop
  vertex -0.0074670864 7.613992e-05 -0.006773075
  vertex -0.0076499903 -0.004028676 -0.0045125955
  vertex -0.008450205 0.0017070281 -0.0041860575
 endloop
endfacet
facet normal -0.98448735 -0.14312805 0.10148459
 outer loop
  vertex -0.0076499903 -0.004028676 -0.0045125955
  vertex -0.0075428793 -0.00078260835 0.0011045407
  vertex -0.008450205 0.0017070281 -0.0041860575
 endloop
endfacet
facet normal -0.88873434 -0.38936827 0.24195763
 outer loop
  vertex -0.005266267 -0.008096641 -0.0023032813
  vertex -0.0075428793 -0.00078260835 0.0011045407
  vertex -0.0076499903 -0.004028676 -0.0045125955
 endloop
endfacet
facet normal -0.80785733 -0.5648199 -0.16835952
 outer loop
  vertex -0.004761579 -0.008214866 -0.004328353
  vertex -0.005266267 -0.008096641 -0.0023032813
  vertex -0.0076499903 -0.004028676 -0.0045125955
 endloop
endfacet
facet normal -0.30229816 -0.4018724 -0.86435777
 outer loop
  vertex -0.0034682597 -0.00896019 -0.0044341455
  vertex -0.004761579 -0.008214866 -0.004328353
  vertex 7.0891845e-05 -0.0057898513 -0.007145928
 endloop
endfacet
facet normal -0.69921553 -0.5047322 -0.5063033
 outer loop
  vertex -0.004485974 -0.005710287 -0.0072057755
  vertex -0.004761579 -0.008214866 -0.004328353
  vertex -0.0076499903 -0.004028676 -0.0045125955
 endloop
endfacet
facet normal -0.004540265 -0.7540614 -0.65678835
 outer loop
  vertex -0.004485974 -0.005710287 -0.0072057755
  vertex 7.0891845e-05 -0.0057898513 -0.007145928
  vertex -0.004761579 -0.008214866 -0.004328353
 endloop
endfacet
facet normal -0.70678157 -0.31682837 -0.6325185
 outer loop
  vertex -0.004485974 -0.005710287 -0.0072057755
  vertex -0.0076499903 -0.004028676 -0.0045125955
  vertex -0.0074670864 7.613992e-05 -0.006773075
 endloop
endfacet
facet normal -0.5109395 -0.22074267 0.83079094
 outer loop
  vertex -0.0048299027 -0.0068847053 0.0011516928
  vertex -0.005254948 0.0004519247 0.0028396444
  vertex -0.0075428793 -0.00078260835 0.0011045407
 endloop
endfacet
facet normal 0.15064093 -0.3120436 0.93804914
 outer loop
  vertex -0.0012482372 -0.007995063 0.001034032
  vertex -0.0031802258 -0.0032339583 0.0029280789
  vertex -0.0038178253 -0.009518074 0.0009400493
 endloop
endfacet
facet normal -0.31333628 -0.1538884 0.9370906
 outer loop
  vertex -0.0031802258 -0.0032339583 0.0029280789
  vertex 0.00030943888 -0.0021663134 0.004270251
  vertex -0.005254948 0.0004519247 0.0028396444
 endloop
endfacet
facet normal -0.42486602 -0.23357958 0.8746024
 outer loop
  vertex -0.0038178253 -0.009518074 0.0009400493
  vertex -0.0031802258 -0.0032339583 0.0029280789
  vertex -0.0048299027 -0.0068847053 0.0011516928
 endloop
endfacet
facet normal -0.009991739 0.31004056 -0.9506708
 outer loop
  vertex -0.0044137463 0.0011625169 -0.00867375
  vertex -0.0038336671 0.0057985694 -0.007167899
  vertex -0.0006146009 0.0010098778 -0.0087634595
 endloop
endfacet
facet normal -0.9562273 0.16502912 0.24164991
 outer loop
  vertex -0.008450205 0.0017070281 -0.0041860575
  vertex -0.0075428793 -0.00078260835 0.0011045407
  vertex -0.006912175 0.003846459 0.00043897284
 endloop
endfacet
facet normal -0.73069453 0.45080775 -0.5126967
 outer loop
  vertex -0.0038336671 0.0057985694 -0.007167899
  vertex -0.008450205 0.0017070281 -0.0041860575
  vertex -0.0050587095 0.007882266 -0.0035898024
 endloop
endfacet
facet normal -0.89803976 0.4282737 0.100529164
 outer loop
  vertex -0.008450205 0.0017070281 -0.0041860575
  vertex -0.006912175 0.003846459 0.00043897284
  vertex -0.0052920994 0.007104058 0.0010333128
 endloop
endfacet
facet normal -0.87740505 0.47838032 0.03623145
 outer loop
  vertex -0.008450205 0.0017070281 -0.0041860575
  vertex -0.0052920994 0.007104058 0.0010333128
  vertex -0.0050587095 0.007882266 -0.0035898024
 endloop
endfacet
facet normal 0.86564475 0.4749002 0.15852097
 outer loop
  vertex -0.0043024416 0.0121441465 -0.0032955816
  vertex -0.0048395847 0.011674101 0.001045797
  vertex -0.0034113196 0.0089499615 0.0014074172
 endloop
endfacet
facet normal 0.65807575 0.6749551 0.33372444
 outer loop
  vertex -0.0043024416 0.0121441465 -0.0032955816
  vertex -0.0034113196 0.0089499615 0.0014074172
  vertex -0.002129204 0.008725746 -0.00066732883
 endloop
endfacet
facet normal -0.1509866 0.09472249 -0.98398715
 outer loop
  vertex -0.0050587095 0.007882266 -0.0035898024
  vertex -0.0057824706 0.012179895 -0.0030650392
  vertex -0.0043024416 0.0121441465 -0.0032955816
 endloop
endfacet
facet normal -0.39327288 0.1325952 -0.90981036
 outer loop
  vertex -0.0050587095 0.007882266 -0.0035898024
  vertex -0.0043024416 0.0121441465 -0.0032955816
  vertex -0.0036122936 0.008606787 -0.004109436
 endloop
endfacet
facet normal 0.041523047 0.99276954 0.112625554
 outer loop
  vertex -0.0057824706 0.012179895 -0.0030650392
  vertex -0.0048395847 0.011674101 0.001045797
  vertex -0.0043024416 0.0121441465 -0.0032955816
 endloop
endfacet
facet normal -0.94874686 -0.30846328 -0.06877368
 outer loop
  vertex -0.0050587095 0.007882266 -0.0035898024
  vertex -0.00556834 0.008793668 -0.0006471597
  vertex -0.006180921 0.010793557 -0.0011663699
 endloop
endfacet
facet normal -0.9489165 -0.124399625 -0.28996947
 outer loop
  vertex -0.0050587095 0.007882266 -0.0035898024
  vertex -0.006180921 0.010793557 -0.0011663699
  vertex -0.0057824706 0.012179895 -0.0030650392
 endloop
endfacet
facet normal 0.883004 0.26189202 -0.389508
 outer loop
  vertex -0.0043024416 0.0121441465 -0.0032955816
  vertex -0.002129204 0.008725746 -0.00066732883
  vertex -0.0036122936 0.008606787 -0.004109436
 endloop
endfacet
facet normal 0.25810012 0.9552929 -0.14422156
 outer loop
  vertex -0.002129204 0.008725746 -0.00066732883
  vertex -0.00085640856 0.00771775 -0.0050662714
  vertex -0.0036122936 0.008606787 -0.004109436
 endloop
endfacet
facet normal 0.002734802 0.7364975 -0.67643476
 outer loop
  vertex -0.0036122936 0.008606787 -0.004109436
  vertex -0.00085640856 0.00771775 -0.0050662714
  vertex -0.0038336671 0.0057985694 -0.007167899
 endloop
endfacet
facet normal -0.964638 -0.24759994 -0.09037654
 outer loop
  vertex -0.0050587095 0.007882266 -0.0035898024
  vertex -0.0052920994 0.007104058 0.0010333128
  vertex -0.00556834 0.008793668 -0.0006471597
 endloop
endfacet
facet normal -0.57990175 0.31640732 -0.7507332
 outer loop
  vertex -0.0044137463 0.0011625169 -0.00867375
  vertex -0.0074670864 7.613992e-05 -0.006773075
  vertex -0.0038336671 0.0057985694 -0.007167899
 endloop
endfacet
facet normal -0.7387013 0.109695055 0.66504693
 outer loop
  vertex -0.005254948 0.0004519247 0.0028396444
  vertex -0.004880991 0.0034954364 0.0027530107
  vertex -0.006912175 0.003846459 0.00043897284
 endloop
endfacet
facet normal -0.65714234 0.19425076 0.7283066
 outer loop
  vertex -0.005254948 0.0004519247 0.0028396444
  vertex -0.006912175 0.003846459 0.00043897284
  vertex -0.0075428793 -0.00078260835 0.0011045407
 endloop
endfacet
facet normal -0.523268 0.6462382 -0.555488
 outer loop
  vertex -0.0050587095 0.007882266 -0.0035898024
  vertex -0.0036122936 0.008606787 -0.004109436
  vertex -0.0038336671 0.0057985694 -0.007167899
 endloop
endfacet
facet normal -0.3055583 0.06458529 0.94998044
 outer loop
  vertex 0.0011054687 0.00052353216 0.004880585
  vertex -0.004880991 0.0034954364 0.0027530107
  vertex -0.005254948 0.0004519247 0.0028396444
 endloop
endfacet
facet normal -0.38203308 0.36174142 0.8504081
 outer loop
  vertex -0.0029259108 0.006601202 0.0023101894
  vertex -0.0052920994 0.007104058 0.0010333128
  vertex -0.004880991 0.0034954364 0.0027530107
 endloop
endfacet
facet normal -0.7255793 0.42326695 -0.5425676
 outer loop
  vertex -0.0038336671 0.0057985694 -0.007167899
  vertex -0.0074670864 7.613992e-05 -0.006773075
  vertex -0.008450205 0.0017070281 -0.0041860575
 endloop
endfacet
facet normal 0.81407994 0.34718257 0.46555132
 outer loop
  vertex -0.0029259108 0.006601202 0.0023101894
  vertex -0.002129204 0.008725746 -0.00066732883
  vertex -0.0034113196 0.0089499615 0.0014074172
 endloop
endfacet
facet normal 0.57051677 0.39472693 0.7202092
 outer loop
  vertex -0.0029259108 0.006601202 0.0023101894
  vertex -0.0034113196 0.0089499615 0.0014074172
  vertex -0.0048395847 0.011674101 0.001045797
 endloop
endfacet
facet normal -0.46720982 0.043849684 0.8830584
 outer loop
  vertex -0.0029259108 0.006601202 0.0023101894
  vertex -0.0048395847 0.011674101 0.001045797
  vertex -0.0052920994 0.007104058 0.0010333128
 endloop
endfacet
facet normal -0.0021117418 -0.9968316 -0.079512976
 outer loop
  vertex 0.0014181667 -0.0076420666 -0.0034622052
  vertex 0.004516615 -0.007792615 -0.0016571139
  vertex -0.0012482372 -0.007995063 0.001034032
 endloop
endfacet
facet normal 0.31726995 -0.79561347 -0.5160804
 outer loop
  vertex 7.0891845e-05 -0.0057898513 -0.007145928
  vertex 0.0014181667 -0.0076420666 -0.0034622052
  vertex -0.0034682597 -0.00896019 -0.0044341455
 endloop
endfacet
facet normal 0.4230992 -0.37825114 -0.82335484
 outer loop
  vertex 0.0033630815 -0.0076693664 -0.003273149
  vertex 0.0033517082 -0.0040587336 -0.0049377265
  vertex 0.0059986874 -0.004215471 -0.003505512
 endloop
endfacet
facet normal 0.9063914 -0.37628227 0.19200587
 outer loop
  vertex 0.006731232 -0.0026882067 -0.0021082028
  vertex 0.004928299 -0.005479934 0.0009317325
  vertex 0.004516615 -0.007792615 -0.0016571139
 endloop
endfacet
facet normal 0.9043242 -0.058162123 -0.4228654
 outer loop
  vertex 0.0026640869 0.00041150732 -0.0070230975
  vertex 0.0038784351 0.0032986253 -0.0048232405
  vertex 0.0033517082 -0.0040587336 -0.0049377265
 endloop
endfacet
facet normal 0.47485244 -0.020304726 -0.8798312
 outer loop
  vertex 0.0033517082 -0.0040587336 -0.0049377265
  vertex 0.0038784351 0.0032986253 -0.0048232405
  vertex 0.0059986874 -0.004215471 -0.003505512
 endloop
endfacet
facet normal 0.082133375 -0.41704276 -0.9051682
 outer loop
  vertex 0.0014181667 -0.0076420666 -0.0034622052
  vertex 0.0033517082 -0.0040587336 -0.0049377265
  vertex 0.0033630815 -0.0076693664 -0.003273149
 endloop
endfacet
facet normal 0.8009642 -0.1474868 -0.580262
 outer loop
  vertex 0.0015488804 -0.0037012564 -0.0075171194
  vertex 0.0026640869 0.00041150732 -0.0070230975
  vertex 0.0033517082 -0.0040587336 -0.0049377265
 endloop
endfacet
facet normal 0.91522485 -0.4007735 -0.04176326
 outer loop
  vertex 0.0059986874 -0.004215471 -0.003505512
  vertex 0.0063649598 -0.0034518389 -0.0028068572
  vertex 0.004516615 -0.007792615 -0.0016571139
 endloop
endfacet
facet normal 0.91522485 -0.40077347 -0.041763242
 outer loop
  vertex 0.0063649598 -0.0034518389 -0.0028068572
  vertex 0.006731232 -0.0026882067 -0.0021082028
  vertex 0.004516615 -0.007792615 -0.0016571139
 endloop
endfacet
facet normal 0.6450891 -0.56148964 -0.5182561
 outer loop
  vertex 0.0014181667 -0.0076420666 -0.0034622052
  vertex 7.0891845e-05 -0.0057898513 -0.007145928
  vertex 0.0033517082 -0.0040587336 -0.0049377265
 endloop
endfacet
facet normal -0.3995804 -0.22499134 0.88865876
 outer loop
  vertex -0.0038178253 -0.009518074 0.0009400493
  vertex -0.0048299027 -0.0068847053 0.0011516928
  vertex -0.0065019717 -0.011794373 -0.0008431772
 endloop
endfacet
facet normal 0.3086082 -0.7332202 0.6059283
 outer loop
  vertex 0.004516615 -0.007792615 -0.0016571139
  vertex 0.004928299 -0.005479934 0.0009317325
  vertex -0.0012482372 -0.007995063 0.001034032
 endloop
endfacet
facet normal -0.007098741 -0.9974507 -0.0710044
 outer loop
  vertex 0.0033630815 -0.0076693664 -0.003273149
  vertex 0.004516615 -0.007792615 -0.0016571139
  vertex 0.0014181667 -0.0076420666 -0.0034622052
 endloop
endfacet
facet normal 0.6641854 -0.5415016 -0.5153968
 outer loop
  vertex 0.0059986874 -0.004215471 -0.003505512
  vertex 0.004516615 -0.007792615 -0.0016571139
  vertex 0.0033630815 -0.0076693664 -0.003273149
 endloop
endfacet
facet normal 0.21367204 -0.49035987 0.84492093
 outer loop
  vertex 0.004928299 -0.005479934 0.0009317325
  vertex 0.0014297224 -0.0036530148 0.0028767618
  vertex -0.0012482372 -0.007995063 0.001034032
 endloop
endfacet
facet normal 0.25717884 -0.8753817 0.40934822
 outer loop
  vertex 0.0014297224 -0.0036530148 0.0028767618
  vertex 0.005295373 -0.002851388 0.0021623725
  vertex 0.0054620993 -0.0020176477 0.0038405585
 endloop
endfacet
facet normal -0.022739077 -0.9772833 -0.21071397
 outer loop
  vertex 0.001492704 -0.0021470957 0.005427834
  vertex 0.0050058565 -0.002597228 0.00713641
  vertex 0.0030874973 -0.003061188 0.009495257
 endloop
endfacet
facet normal -0.4416078 -0.7678185 0.46415216
 outer loop
  vertex 0.00030943888 -0.0021663134 0.004270251
  vertex 0.0014297224 -0.0036530148 0.0028767618
  vertex 0.001492704 -0.0021470957 0.005427834
 endloop
endfacet
facet normal 0.39531872 -0.91243863 -0.1057299
 outer loop
  vertex 0.0014297224 -0.0036530148 0.0028767618
  vertex 0.0054620993 -0.0020176477 0.0038405585
  vertex 0.0050058565 -0.002597228 0.00713641
 endloop
endfacet
facet normal -0.3389388 -0.80649316 0.48444742
 outer loop
  vertex 0.0014297224 -0.0036530148 0.0028767618
  vertex 0.0050058565 -0.002597228 0.00713641
  vertex 0.001492704 -0.0021470957 0.005427834
 endloop
endfacet
facet normal 0.25049326 -0.43896654 0.8628797
 outer loop
  vertex 0.005295373 -0.002851388 0.0021623725
  vertex 0.0014297224 -0.0036530148 0.0028767618
  vertex 0.004928299 -0.005479934 0.0009317325
 endloop
endfacet
facet normal 0.77418536 -0.25442863 0.57957155
 outer loop
  vertex 0.0050058565 -0.002597228 0.00713641
  vertex 0.0039347033 0.0004913978 0.009923134
  vertex 0.0030874973 -0.003061188 0.009495257
 endloop
endfacet
facet normal 0.48281717 0.12426619 -0.8668595
 outer loop
  vertex -0.0006146009 0.0010098778 -0.0087634595
  vertex 0.001357053 0.004626771 -0.0071468125
  vertex 0.0026640869 0.00041150732 -0.0070230975
 endloop
endfacet
facet normal 0.46245372 0.69863474 -0.5459358
 outer loop
  vertex 0.001357053 0.004626771 -0.0071468125
  vertex -0.00085640856 0.00771775 -0.0050662714
  vertex 0.002313312 0.007649544 -0.0024685333
 endloop
endfacet
facet normal 0.7116926 0.5147361 -0.47805887
 outer loop
  vertex 0.001357053 0.004626771 -0.0071468125
  vertex 0.002313312 0.007649544 -0.0024685333
  vertex 0.0038784351 0.0032986253 -0.0048232405
 endloop
endfacet
facet normal 0.90526587 -0.047999766 -0.4221253
 outer loop
  vertex 0.006731232 -0.0026882067 -0.0021082028
  vertex 0.0063649598 -0.0034518389 -0.0028068572
  vertex 0.006710843 0.00077182543 -0.0025453672
 endloop
endfacet
facet normal 0.42239383 0.3642988 -0.8299818
 outer loop
  vertex 0.0038784351 0.0032986253 -0.0048232405
  vertex 0.0056434716 0.0062967082 -0.0026090492
  vertex 0.006690454 0.0042318576 -0.0029825317
 endloop
endfacet
facet normal 0.87613994 0.39401215 0.27772892
 outer loop
  vertex 0.0056434716 0.0062967082 -0.0026090492
  vertex 0.0047143586 0.0061655347 0.00050808
  vertex 0.006690454 0.0042318576 -0.0029825317
 endloop
endfacet
facet normal 0.7193099 0.20354377 -0.66420114
 outer loop
  vertex 0.0026640869 0.00041150732 -0.0070230975
  vertex 0.001357053 0.004626771 -0.0071468125
  vertex 0.0038784351 0.0032986253 -0.0048232405
 endloop
endfacet
facet normal 0.17443235 0.51646304 -0.8383551
 outer loop
  vertex 0.0038784351 0.0032986253 -0.0048232405
  vertex 0.002313312 0.007649544 -0.0024685333
  vertex 0.0056434716 0.0062967082 -0.0026090492
 endloop
endfacet
facet normal 0.37751454 0.913614 0.15097085
 outer loop
  vertex 0.0047143586 0.0061655347 0.00050808
  vertex 0.0056434716 0.0062967082 -0.0026090492
  vertex 0.002313312 0.007649544 -0.0024685333
 endloop
endfacet
facet normal -0.7880539 0.6114363 0.071530685
 outer loop
  vertex 0.0011054687 0.00052353216 0.004880585
  vertex 0.0029569129 0.002371829 0.009478918
  vertex 0.0023039733 0.0021449837 0.004224528
 endloop
endfacet
facet normal 0.2308416 0.42221928 0.8766088
 outer loop
  vertex 0.0047143586 0.0061655347 0.00050808
  vertex -0.0029259108 0.006601202 0.0023101894
  vertex 0.0010205443 0.0038777334 0.002582711
 endloop
endfacet
facet normal 0.32979408 0.76648104 0.55112857
 outer loop
  vertex 0.0023039733 0.0021449837 0.004224528
  vertex 0.0041879136 0.0021171654 0.003135871
  vertex 0.0010205443 0.0038777334 0.002582711
 endloop
endfacet
facet normal 0.22987792 0.9706646 -0.070471935
 outer loop
  vertex 0.0029569129 0.002371829 0.009478918
  vertex 0.0048473747 0.0017337408 0.0068566804
  vertex 0.0023039733 0.0021449837 0.004224528
 endloop
endfacet
facet normal 0.6567777 0.34862015 0.6686607
 outer loop
  vertex 0.0056155343 0.0008062197 0.0024171097
  vertex 0.0047143586 0.0061655347 0.00050808
  vertex 0.0041879136 0.0021171654 0.003135871
 endloop
endfacet
facet normal 0.66455317 0.746121 -0.040895883
 outer loop
  vertex 0.0048473747 0.0017337408 0.0068566804
  vertex 0.0056155343 0.0008062197 0.0024171097
  vertex 0.0041879136 0.0021171654 0.003135871
 endloop
endfacet
facet normal 0.06698122 0.9936394 0.090521775
 outer loop
  vertex 0.0023039733 0.0021449837 0.004224528
  vertex 0.0048473747 0.0017337408 0.0068566804
  vertex 0.0041879136 0.0021171654 0.003135871
 endloop
endfacet
facet normal 0.14555068 0.5252728 0.8383934
 outer loop
  vertex 0.0041879136 0.0021171654 0.003135871
  vertex 0.0047143586 0.0061655347 0.00050808
  vertex 0.0010205443 0.0038777334 0.002582711
 endloop
endfacet
facet normal -0.4255411 -0.007506631 0.90490794
 outer loop
  vertex 0.0039347033 0.0004913978 0.009923134
  vertex 0.0029569129 0.002371829 0.009478918
  vertex 0.0030874973 -0.003061188 0.009495257
 endloop
endfacet
facet normal 0.75765175 0.49456894 0.42587024
 outer loop
  vertex 0.0029569129 0.002371829 0.009478918
  vertex 0.0039347033 0.0004913978 0.009923134
  vertex 0.0048473747 0.0017337408 0.0068566804
 endloop
endfacet
facet normal 0.37878934 -0.9127528 0.1529738
 outer loop
  vertex -0.002471367 -0.009022102 -0.0020653459
  vertex 0.0014181667 -0.0076420666 -0.0034622052
  vertex -0.0012482372 -0.007995063 0.001034032
 endloop
endfacet
facet normal 0.24528328 -0.14109859 -0.9591284
 outer loop
  vertex -0.0027543027 -0.0027830957 -0.008752668
  vertex -0.0006146009 0.0010098778 -0.0087634595
  vertex 0.0015488804 -0.0037012564 -0.0075171194
 endloop
endfacet
facet normal 0.2013401 -0.30774617 -0.9299217
 outer loop
  vertex 7.0891845e-05 -0.0057898513 -0.007145928
  vertex -0.0027543027 -0.0027830957 -0.008752668
  vertex 0.0015488804 -0.0037012564 -0.0075171194
 endloop
endfacet
facet normal -0.024053637 -0.37794593 0.9255151
 outer loop
  vertex -0.0012482372 -0.007995063 0.001034032
  vertex 0.0014297224 -0.0036530148 0.0028767618
  vertex -0.0031802258 -0.0032339583 0.0029280789
 endloop
endfacet
facet normal -0.05621707 -0.705006 0.7069696
 outer loop
  vertex -0.0031802258 -0.0032339583 0.0029280789
  vertex 0.0014297224 -0.0036530148 0.0028767618
  vertex 0.00030943888 -0.0021663134 0.004270251
 endloop
endfacet
facet normal 0.08657139 0.36681765 -0.92625606
 outer loop
  vertex -0.0006146009 0.0010098778 -0.0087634595
  vertex -0.0038336671 0.0057985694 -0.007167899
  vertex 0.001357053 0.004626771 -0.0071468125
 endloop
endfacet
facet normal 0.16424972 0.97078466 -0.1749262
 outer loop
  vertex -0.002129204 0.008725746 -0.00066732883
  vertex 0.002313312 0.007649544 -0.0024685333
  vertex -0.00085640856 0.00771775 -0.0050662714
 endloop
endfacet
facet normal 0.14337099 0.6212276 -0.77040315
 outer loop
  vertex -0.0038336671 0.0057985694 -0.007167899
  vertex -0.00085640856 0.00771775 -0.0050662714
  vertex 0.001357053 0.004626771 -0.0071468125
 endloop
endfacet
facet normal -0.02278126 0.6786818 0.73407906
 outer loop
  vertex -0.004880991 0.0034954364 0.0027530107
  vertex 0.0023039733 0.0021449837 0.004224528
  vertex 0.0010205443 0.0038777334 0.002582711
 endloop
endfacet
facet normal -0.10107121 0.43644404 0.8940364
 outer loop
  vertex 0.0011054687 0.00052353216 0.004880585
  vertex 0.0023039733 0.0021449837 0.004224528
  vertex -0.004880991 0.0034954364 0.0027530107
 endloop
endfacet
facet normal -0.023194099 0.010240168 -0.99967855
 outer loop
  vertex -0.0044137463 0.0011625169 -0.00867375
  vertex -0.0006146009 0.0010098778 -0.0087634595
  vertex -0.0027543027 -0.0027830957 -0.008752668
 endloop
endfacet
facet normal 0.4658975 -0.020072801 -0.884611
 outer loop
  vertex -0.0006146009 0.0010098778 -0.0087634595
  vertex 0.0026640869 0.00041150732 -0.0070230975
  vertex 0.0015488804 -0.0037012564 -0.0075171194
 endloop
endfacet
facet normal 0.54600626 0.007152338 -0.83775055
 outer loop
  vertex 0.0038784351 0.0032986253 -0.0048232405
  vertex 0.006690454 0.0042318576 -0.0029825317
  vertex 0.006344571 8.19331e-06 -0.003244022
 endloop
endfacet
facet normal 0.5460062 0.0071522975 -0.8377506
 outer loop
  vertex 0.0038784351 0.0032986253 -0.0048232405
  vertex 0.006344571 8.19331e-06 -0.003244022
  vertex 0.0059986874 -0.004215471 -0.003505512
 endloop
endfacet
facet normal 0.9948791 -0.08307549 -0.05756759
 outer loop
  vertex 0.005295373 -0.002851388 0.0021623725
  vertex 0.005455454 -0.0010225842 0.002289741
  vertex 0.0054620993 -0.0020176477 0.0038405585
 endloop
endfacet
facet normal -0.3018588 -0.12511581 0.94510704
 outer loop
  vertex 0.00030943888 -0.0021663134 0.004270251
  vertex 0.0011054687 0.00052353216 0.004880585
  vertex -0.005254948 0.0004519247 0.0028396444
 endloop
endfacet
facet normal -0.9187568 -0.05304625 0.39124432
 outer loop
  vertex 0.001492704 -0.0021470957 0.005427834
  vertex 0.0029569129 0.002371829 0.009478918
  vertex 0.0011054687 0.00052353216 0.004880585
 endloop
endfacet
facet normal 0.9884088 0.04552286 0.14483011
 outer loop
  vertex 0.0048473747 0.0017337408 0.0068566804
  vertex 0.0050058565 -0.002597228 0.00713641
  vertex 0.0054620993 -0.0020176477 0.0038405585
 endloop
endfacet
facet normal -0.6989741 0.04490482 0.7137359
 outer loop
  vertex 0.00030943888 -0.0021663134 0.004270251
  vertex 0.001492704 -0.0021470957 0.005427834
  vertex 0.0011054687 0.00052353216 0.004880585
 endloop
endfacet
facet normal 0.98594654 0.029332183 0.16446589
 outer loop
  vertex 0.0056155343 0.0008062197 0.0024171097
  vertex 0.0048473747 0.0017337408 0.0068566804
  vertex 0.0054620993 -0.0020176477 0.0038405585
 endloop
endfacet
facet normal -0.9324023 -0.021325577 0.36079237
 outer loop
  vertex 0.001492704 -0.0021470957 0.005427834
  vertex 0.0030874973 -0.003061188 0.009495257
  vertex 0.0029569129 0.002371829 0.009478918
 endloop
endfacet
facet normal 0.9507735 0.054494496 0.3050575
 outer loop
  vertex 0.0048473747 0.0017337408 0.0068566804
  vertex 0.0039347033 0.0004913978 0.009923134
  vertex 0.0050058565 -0.002597228 0.00713641
 endloop
endfacet
facet normal 0.0017319006 -0.6179527 0.7862134
 outer loop
  vertex -0.0065019717 -0.011794373 -0.0008431772
  vertex -0.0048337397 -0.01262385 -0.0014988092
  vertex -0.0038178253 -0.009518074 0.0009400493
 endloop
endfacet
facet normal -0.43787628 -0.2255931 0.87027127
 outer loop
  vertex -0.005254948 0.0004519247 0.0028396444
  vertex -0.0048299027 -0.0068847053 0.0011516928
  vertex -0.0031802258 -0.0032339583 0.0029280789
 endloop
endfacet
facet normal -0.8856232 -0.39181945 0.24929686
 outer loop
  vertex -0.005266267 -0.008096641 -0.0023032813
  vertex -0.0048299027 -0.0068847053 0.0011516928
  vertex -0.0075428793 -0.00078260835 0.0011045407
 endloop
endfacet
facet normal -0.712838 0.23387904 0.6611828
 outer loop
  vertex -0.006912175 0.003846459 0.00043897284
  vertex -0.004880991 0.0034954364 0.0027530107
  vertex -0.0052920994 0.007104058 0.0010333128
 endloop
endfacet
facet normal -0.82934386 -0.11191455 0.5474157
 outer loop
  vertex -0.00556834 0.008793668 -0.0006471597
  vertex -0.0048395847 0.011674101 0.001045797
  vertex -0.006180921 0.010793557 -0.0011663699
 endloop
endfacet
facet normal -0.7845261 0.5675655 0.24977636
 outer loop
  vertex -0.006180921 0.010793557 -0.0011663699
  vertex -0.0048395847 0.011674101 0.001045797
  vertex -0.0057824706 0.012179895 -0.0030650392
 endloop
endfacet
facet normal -0.96272075 0.09463406 0.25340322
 outer loop
  vertex -0.0052920994 0.007104058 0.0010333128
  vertex -0.0048395847 0.011674101 0.001045797
  vertex -0.00556834 0.008793668 -0.0006471597
 endloop
endfacet
facet normal 0.3103413 0.926752 0.21170524
 outer loop
  vertex -0.002129204 0.008725746 -0.00066732883
  vertex 0.0047143586 0.0061655347 0.00050808
  vertex 0.002313312 0.007649544 -0.0024685333
 endloop
endfacet
facet normal 0.90526587 -0.04799978 -0.42212522
 outer loop
  vertex 0.006710843 0.00077182543 -0.0025453672
  vertex 0.0063649598 -0.0034518389 -0.0028068572
  vertex 0.006344571 8.19331e-06 -0.003244022
 endloop
endfacet
facet normal 0.9163744 -0.2674358 0.2978859
 outer loop
  vertex 0.006731232 -0.0026882067 -0.0021082028
  vertex 0.005295373 -0.002851388 0.0021623725
  vertex 0.004928299 -0.005479934 0.0009317325
 endloop
endfacet
facet normal 0.18649997 0.7754645 0.6032185
 outer loop
  vertex -0.0029259108 0.006601202 0.0023101894
  vertex 0.0047143586 0.0061655347 0.00050808
  vertex -0.002129204 0.008725746 -0.00066732883
 endloop
endfacet
facet normal 0.90526587 -0.047999755 -0.42212522
 outer loop
  vertex 0.006690454 0.0042318576 -0.0029825317
  vertex 0.006710843 0.00077182543 -0.0025453672
  vertex 0.006344571 8.19331e-06 -0.003244022
 endloop
endfacet
facet normal 0.8939142 0.27609456 0.3531134
 outer loop
  vertex 0.0047143586 0.0061655347 0.00050808
  vertex 0.0056155343 0.0008062197 0.0024171097
  vertex 0.006152994 0.0025190385 -0.00028271088
 endloop
endfacet
facet normal 0.89391416 0.2760945 0.35311353
 outer loop
  vertex 0.0047143586 0.0061655347 0.00050808
  vertex 0.006152994 0.0025190385 -0.00028271088
  vertex 0.006690454 0.0042318576 -0.0029825317
 endloop
endfacet
facet normal 0.020280637 0.12860025 0.9914892
 outer loop
  vertex 0.0010205443 0.0038777334 0.002582711
  vertex -0.0029259108 0.006601202 0.0023101894
  vertex -0.004880991 0.0034954364 0.0027530107
 endloop
endfacet
facet normal 0.6461576 -0.5510889 -0.5279974
 outer loop
  vertex 0.0033517082 -0.0040587336 -0.0049377265
  vertex 7.0891845e-05 -0.0057898513 -0.007145928
  vertex 0.0015488804 -0.0037012564 -0.0075171194
 endloop
endfacet
facet normal 0.90526587 -0.04799978 -0.4221252
 outer loop
  vertex 0.006344571 8.19331e-06 -0.003244022
  vertex 0.0063649598 -0.0034518389 -0.0028068572
  vertex 0.0059986874 -0.004215471 -0.003505512
 endloop
endfacet
facet normal 0.9760151 0.032940745 0.21519607
 outer loop
  vertex 0.006690454 0.0042318576 -0.0029825317
  vertex 0.006152994 0.0025190385 -0.00028271088
  vertex 0.006710843 0.00077182543 -0.0025453672
 endloop
endfacet
facet normal 0.9760151 0.032940824 0.21519597
 outer loop
  vertex 0.006152994 0.0025190385 -0.00028271088
  vertex 0.0056155343 0.0008062197 0.0024171097
  vertex 0.006710843 0.00077182543 -0.0025453672
 endloop
endfacet
facet normal 0.9760151 0.03294075 0.215196
 outer loop
  vertex 0.006710843 0.00077182543 -0.0025453672
  vertex 0.0056155343 0.0008062197 0.0024171097
  vertex 0.006731232 -0.0026882067 -0.0021082028
 endloop
endfacet
facet normal 0.9438734 -0.1044441 0.3133596
 outer loop
  vertex 0.0056155343 0.0008062197 0.0024171097
  vertex 0.005455454 -0.0010225842 0.002289741
  vertex 0.006731232 -0.0026882067 -0.0021082028
 endloop
endfacet
facet normal 0.9438734 -0.104444414 0.31335968
 outer loop
  vertex 0.005295373 -0.002851388 0.0021623725
  vertex 0.006731232 -0.0026882067 -0.0021082028
  vertex 0.005455454 -0.0010225842 0.002289741
 endloop
endfacet
facet normal 0.99487907 -0.083075255 -0.057567436
 outer loop
  vertex 0.0056155343 0.0008062197 0.0024171097
  vertex 0.0054620993 -0.0020176477 0.0038405585
  vertex 0.005455454 -0.0010225842 0.002289741
 endloop
endfacet
endsolid 
